<mxfile host="app.diagrams.net" modified="2023-07-03T03:46:53.962Z" agent="Mozilla/5.0 (Windows NT 10.0; Win64; x64) AppleWebKit/537.36 (KHTML, like Gecko) Chrome/114.0.0.0 Safari/537.36" version="21.5.2" etag="cFp_iyNzGp2odDUtGXfS" type="github">
  <diagram name="Page-1" id="fcmwchQ3Gg0W3aA2NufQ">
    <mxGraphModel>
      <root>
        <mxCell id="0" />
        <mxCell id="1" parent="0" />
      </root>
    </mxGraphModel>
  </diagram>
</mxfile>
